<svg id="Layer_1" data-name="Layer 1" xmlns="http://www.w3.org/2000/svg" viewBox="0 0 64 64"><defs><style>.cls-1{fill:#236db6;}.cls-2{fill:#fff;fill-rule:evenodd;}.cls-3{opacity:0.17;}</style></defs><title>sdp-2-64*64</title><g id="Group_1282" data-name="Group 1282"><path id="Polygon_25" data-name="Polygon 25" class="cls-1" d="M58.46,14.74a3.45,3.45,0,0,1,1.71,3V46.28a3.43,3.43,0,0,1-1.72,3L33.71,63.54a3.44,3.44,0,0,1-3.43,0L5.54,49.26a3.43,3.43,0,0,1-1.71-3V17.72a3.42,3.42,0,0,1,1.71-3L30.28.46a3.46,3.46,0,0,1,3.44,0Z"/><path id="Layer" class="cls-2" d="M39.25,29.91c.32,2,.76,4.81,4.55,6.63,5.07,2.47,5.27,6.11,3.52,7.28s-3.2-.59-5.15-4.16c-1.29-2.35-6.19-5.59-10.28-.59-.37.59-.75,1.2-1.12,1.82-.66,1.12-1.37,2.28-2.21,3.45-2.15,3.06-7.75,5.79-11.85,1.95C11.5,41.41,15.8,35.43,16.12,35a11.45,11.45,0,0,1,5.08-3.71c2-.85,7-1.3,11.19.25,3.45.72,2.16-2.53.26-4A12.88,12.88,0,0,0,28.84,26c-3-.95-6.37-2-6.14-5.56.26-3.78,3.52-4.63,5.4-4.56.78,0,7.49.85,10.87,12.69a8,8,0,0,1,.27,1.36v0Zm5.46-3.06a3.54,3.54,0,0,1,4.88,1,.51.51,0,0,1,.14.26c.52,1.43-.66,2.09-2.67,2.6-3.2.85-3.91,2.94-4,3.32a1.11,1.11,0,0,0-.07-.26c-.39-1.62-.72-5.33,1.69-6.89Z"/><path id="Subtraction_23" data-name="Subtraction 23" class="cls-3" d="M32.23,4.68a3.42,3.42,0,0,1,1.71.46l20.72,12a3.47,3.47,0,0,1,1.72,3V44a3.43,3.43,0,0,1-1.71,3L34,58.86a3.42,3.42,0,0,1-1.71.46H32V4.69Z"/></g></svg>